<svg width="30" height="30" viewBox="0 0 30 30" fill="none" xmlns="http://www.w3.org/2000/svg">
<path d="M14.1211 2.05957C10.7331 2.25404 7.55589 3.57059 5.0199 5.83072L8.94193 9.75275C10.4179 8.52398 12.2101 7.78142 14.1211 7.60682V2.05957Z" fill="#3C50E0"/>
<path d="M7.6986 10.9947L3.77663 7.07275C1.51456 9.60804 0.196374 12.7855 0.000671387 16.1743H5.54815C5.72393 14.2629 6.46807 12.4706 7.6986 10.9947Z" fill="#3C50E0"/>
<path d="M24.4519 16.1743H29.9994C29.8037 12.7855 28.4856 9.60804 26.2234 7.07275L22.3015 10.9947C23.532 12.4705 24.2761 14.2629 24.4519 16.1743Z" fill="#3C50E0"/>
<path d="M24.4507 17.9331C24.3274 19.2868 23.9411 20.4159 23.4842 21.3216C23.9299 22.0089 24.3015 22.5898 24.5471 22.9756C25.2156 24.0263 25.0676 25.375 24.187 26.2556C23.9732 26.4695 23.729 26.6417 23.4644 26.769L24.3778 27.6825C24.5497 27.8544 24.775 27.9404 25.0003 27.9404C25.2257 27.9404 25.451 27.8544 25.6228 27.6825C28.2551 25.0505 29.79 21.6161 30 17.9331H24.4507Z" fill="#3C50E0"/>
<path d="M5.54941 17.9331H0C0.210059 21.6161 1.74492 25.0505 4.37713 27.6826C4.54904 27.8545 4.77434 27.9404 4.99963 27.9404C5.22492 27.9404 5.45027 27.8544 5.62219 27.6826L8.28891 25.0157C8.63268 24.6719 8.63268 24.1144 8.28891 23.7706C7.59299 23.0746 5.84004 21.1263 5.54941 17.9331Z" fill="#3C50E0"/>
<path d="M24.9801 5.83072C22.4441 3.57053 19.2669 2.25404 15.8789 2.05957V7.60682C17.7899 7.78142 19.5821 8.52398 21.0581 9.75275L24.9801 5.83072Z" fill="#3C50E0"/>
<path d="M16.953 15.1152C15.8762 14.0384 14.1241 14.0384 13.0473 15.1152C11.9706 16.192 11.9706 17.944 13.0473 19.0208C14.4076 20.3811 21.0929 24.6497 21.8508 25.1319C22.1983 25.3531 22.6528 25.3032 22.9441 25.0119C23.2354 24.7206 23.2853 24.2661 23.0641 23.9186C22.5818 23.1608 18.3133 16.4755 16.953 15.1152Z" fill="#3C50E0"/>
</svg>
