<svg width="24" height="24" viewBox="0 0 24 24" fill="none" xmlns="http://www.w3.org/2000/svg">
<path d="M15.9089 12.123L23.9999 17.238V6.79199L15.9089 12.123Z" fill="#627193"/>
<path d="M0 6.79199V17.238L8.091 12.123L0 6.79199Z" fill="#627193"/>
<path d="M22.5 3.75H1.50004C0.751544 3.75 0.157544 4.308 0.0450439 5.0265L12 12.903L23.955 5.0265C23.8425 4.308 23.2485 3.75 22.5 3.75Z" fill="#627193"/>
<path d="M14.5351 13.0288L12.4126 14.4268C12.2866 14.5093 12.1441 14.5498 12.0001 14.5498C11.8561 14.5498 11.7136 14.5093 11.5876 14.4268L9.46507 13.0273L0.0480652 18.9838C0.163565 19.6963 0.754565 20.2498 1.50007 20.2498H22.5001C23.2456 20.2498 23.8366 19.6963 23.9521 18.9838L14.5351 13.0288Z" fill="#627193"/>
</svg>
