<svg width="36" height="40" viewBox="0 0 36 40" fill="none" xmlns="http://www.w3.org/2000/svg">
<path d="M15.1872 35.1603H0.626678V30.4447C0.626678 29.4519 1.04033 28.5005 1.82626 27.88C6.08686 24.364 10.7197 22.0476 11.6298 21.5926C11.7539 21.5512 11.7952 21.4271 11.7952 21.303V18.8625C11.1748 17.787 10.8025 16.5874 10.637 15.5119C10.2647 15.4705 9.76835 14.9741 9.23061 13.0714C8.56877 10.6722 9.18924 10.1758 9.80972 10.1758C9.85108 10.1758 9.89245 10.1758 9.93381 10.1758C9.43743 8.81075 9.43743 7.48707 9.76835 6.28749C10.0993 4.83971 10.8852 3.68149 11.7539 2.77146C12.2916 2.19235 12.9535 1.6546 13.6153 1.24095C14.153 0.868666 14.7735 0.537746 15.394 0.33092C15.9317 0.16546 16.4695 0.0413651 17.0486 0.0413651C17.2968 9.24581e-09 17.5036 0 17.7518 0C19.1996 0 20.3164 0.41365 21.1437 0.910031C22.5915 1.69597 23.1293 2.77146 23.1293 2.77146C23.1293 2.77146 26.7694 3.01965 25.1561 10.6308C25.6525 10.7963 25.9834 11.4581 25.4043 13.485C24.8666 15.4292 24.3288 15.9255 23.9566 15.9255C23.8325 15.9255 23.7497 15.8842 23.667 15.8428C23.5015 16.7115 23.2534 17.6215 22.8397 18.4902C22.8397 19.7311 22.8397 20.8893 22.8397 21.3444C22.8397 21.4685 22.9224 21.5512 23.0052 21.6339C23.4188 21.8407 24.6184 22.4612 26.2316 23.3713C26.1075 23.4953 25.9421 23.6194 25.818 23.7435C24.7011 24.819 24.122 26.2254 24.122 27.8387C24.122 29.7415 24.7839 30.9411 25.4871 31.6856C25.0321 31.8097 24.6598 32.0579 24.3288 32.3888C23.8738 32.8852 23.6256 33.5057 23.667 34.1675C23.667 34.5398 23.7497 34.8707 23.7911 35.2017H19.5719H15.1872V35.1603ZM31.6091 21.9235H30.2027C29.9959 21.9235 29.8304 22.0889 29.8304 22.2958V23.9504C28.7549 24.1158 27.9276 24.4881 27.2658 25.1086C26.5626 25.8118 26.1903 26.6805 26.1903 27.7559C26.1903 28.9555 26.5212 29.8242 27.2244 30.4447C27.9276 31.0651 29.0031 31.6443 30.4922 32.2647C31.1127 32.5129 31.5264 32.8025 31.7746 33.092C32.0227 33.3816 32.1468 33.7539 32.1468 34.2503C32.1468 34.6639 32.0227 35.0362 31.7746 35.2844C31.5264 35.5326 31.1954 35.698 30.7404 35.698C30.2027 35.698 29.7477 35.5326 29.4167 35.1603C29.1272 34.8707 28.9617 34.4571 28.9204 33.878C28.9204 33.6711 28.7135 33.4643 28.4654 33.4643L26.1903 33.5057C25.9421 33.5057 25.7353 33.7125 25.7353 33.9607C25.7766 35.1603 26.1903 36.1117 26.8935 36.7735C27.6794 37.4767 28.6722 37.8904 29.8304 38.0558V39.6277C29.8304 39.8345 29.9959 40 30.2027 40H31.6091C31.8159 40 31.9814 39.8345 31.9814 39.6277V38.0145C32.9328 37.849 33.6773 37.4767 34.2978 36.8976C35.001 36.2358 35.332 35.3257 35.332 34.2503C35.332 33.092 35.001 32.182 34.2978 31.5615C33.5946 30.9411 32.5191 30.3206 31.03 29.7001C30.4095 29.4105 29.9545 29.1624 29.7477 28.8728C29.4995 28.5832 29.4167 28.2523 29.4167 27.7973C29.4167 27.3837 29.5408 27.0114 29.7477 26.7218C29.9545 26.4323 30.2854 26.3082 30.7404 26.3082C31.1954 26.3082 31.5264 26.4736 31.8159 26.8046C32.0227 27.0941 32.1468 27.4664 32.1882 27.9628C32.1882 28.1696 32.395 28.3351 32.6432 28.3351L34.9183 28.2937C35.1665 28.2937 35.3733 28.0869 35.3733 27.8387C35.3319 26.8459 35.001 26.0186 34.4219 25.3154C33.8014 24.6122 33.0155 24.1572 32.0227 23.9504V22.213C32.0227 22.0889 31.8159 21.9235 31.6091 21.9235Z" fill="#3C50E0"/>
</svg>
