<svg width="30" height="30" viewBox="0 0 30 30" fill="none" xmlns="http://www.w3.org/2000/svg">
<path d="M30 9.55078V7.96875C30 6.15656 28.5309 4.6875 26.7188 4.6875H3.28125C1.46906 4.6875 0 6.15656 0 7.96875V9.55078C0 9.71256 0.131191 9.84375 0.292969 9.84375H29.707C29.8688 9.84375 30 9.71256 30 9.55078Z" fill="#3C50E0"/>
<path d="M0 12.0117V22.0312C0 23.8434 1.46906 25.3125 3.28125 25.3125H26.7188C28.5309 25.3125 30 23.8434 30 22.0312V12.0117C30 11.8499 29.8688 11.7188 29.707 11.7188H0.292969C0.131191 11.7188 0 11.8499 0 12.0117ZM7.5 19.6875C7.5 20.2052 7.08023 20.625 6.5625 20.625H5.625C5.10727 20.625 4.6875 20.2052 4.6875 19.6875V18.75C4.6875 18.2323 5.10727 17.8125 5.625 17.8125H6.5625C7.08023 17.8125 7.5 18.2323 7.5 18.75V19.6875Z" fill="#3C50E0"/>
</svg>
