<svg width="50" height="50" viewBox="0 0 50 50" fill="none" xmlns="http://www.w3.org/2000/svg">
<g clip-path="url(#clip0_505_427)">
<path d="M12.2264 11.9105C12.6853 5.2558 18.2288 -6.10352e-05 25 -6.10352e-05C31.7712 -6.10352e-05 37.3147 5.2558 37.7736 11.9105C37.7939 12.2058 37.7736 24.5062 25 24.5062C12.2263 24.5061 12.206 12.2058 12.2264 11.9105Z" fill="#FFBA57"/>
<path d="M12.3722 33.7567L17.4208 39.124C17.6641 39.3826 17.6959 39.7844 17.4731 40.0834C17.3298 40.2755 17.0964 40.3792 16.8567 40.3792H15.416L15.4161 49.2553C15.4161 49.6666 15.0826 50.0001 14.6713 50.0001H8.96687C8.55554 50.0001 8.22205 49.6666 8.22205 49.2553L8.22207 40.3792H6.75977C6.40479 40.3792 6.09043 40.1271 6.0253 39.7602C5.9834 39.5241 6.06778 39.283 6.23203 39.1084L11.2766 33.7455C11.4836 33.5254 11.8107 33.4455 12.1104 33.5694C12.2104 33.6108 12.298 33.6778 12.3722 33.7567Z" fill="#FC2B3A"/>
<path d="M25.5424 28.6215L30.5874 33.9848C30.7515 34.1594 30.8357 34.4005 30.7937 34.6364C30.7284 35.0033 30.4141 35.2552 30.0592 35.2552H28.5969L28.5971 49.2553C28.5971 49.6666 28.2636 50.0001 27.8522 50.0001H22.1478C21.7365 50.0001 21.403 49.6666 21.403 49.2553L21.403 35.2552H19.9407C19.5857 35.2552 19.2713 35.0031 19.2062 34.6361C19.1643 34.4001 19.2487 34.159 19.4129 33.9844L24.4518 28.6275C24.5182 28.5569 24.5959 28.4964 24.684 28.4563C24.99 28.3172 25.3297 28.3953 25.5424 28.6215Z" fill="#FC2B3A"/>
<path d="M38.7234 23.8805L43.7683 29.2438C43.9324 29.4183 44.0167 29.6595 43.9745 29.8954C43.9092 30.2623 43.5949 30.5142 43.24 30.5142H41.7778L41.778 49.2553C41.778 49.6666 41.4445 50.0001 41.0331 50.0001H35.3287C34.9173 50.0001 34.5839 49.6666 34.5839 49.2553L34.5839 30.5142H33.1216C32.7667 30.5142 32.4524 30.2623 32.3871 29.8954C32.3451 29.6595 32.4294 29.4184 32.5935 29.2438L37.6385 23.8805C37.7792 23.7309 37.9756 23.646 38.181 23.646C38.3863 23.646 38.5827 23.7309 38.7234 23.8805Z" fill="#FC2B3A"/>
<path d="M15.9895 11.9107C16.4383 7.32982 20.3012 3.75043 24.9999 3.75043C29.6878 3.75043 33.5436 7.31312 34.0071 11.8787C34.038 12.1831 34.0073 20.9796 24.9999 20.9796C15.9893 20.9795 15.9607 12.2047 15.9895 11.9107Z" fill="#FFE27A"/>
<path d="M24.7165 16.297C23.5445 16.2256 23.2226 15.5202 23.1628 15.3545C23.0774 15.0355 22.7872 14.8004 22.4413 14.8004C22.0283 14.8004 21.6935 15.1351 21.6935 15.5481C21.6935 15.6081 21.7014 15.6662 21.7147 15.7221L21.7144 15.7222C21.7151 15.7248 21.7166 15.73 21.7184 15.7364C21.7276 15.7717 21.7385 15.8062 21.7524 15.8392C21.8904 16.22 22.4435 17.4013 24.0732 17.7168V18.7098C24.0732 19.1219 24.4073 19.4559 24.8195 19.4559C25.2317 19.4559 25.5658 19.1219 25.5658 18.7098V17.7392C26.2801 17.6149 26.76 17.3027 27.06 17.0204C27.6182 16.4951 27.9515 15.7011 27.9515 14.8962C27.9515 14.14 27.6549 12.3485 24.9078 12.0454C24.3637 11.9853 23.9754 11.8122 23.7539 11.5307C23.5584 11.2821 23.5372 11.0075 23.5372 10.901C23.5372 10.7697 23.5732 9.61864 24.8195 9.61864C25.6372 9.61864 25.9674 10.1387 26.0295 10.2517C26.1401 10.5264 26.4086 10.7205 26.7229 10.7205C27.1358 10.7205 27.4706 10.3857 27.4706 9.97274C27.4706 9.84999 27.4404 9.73446 27.388 9.63221L27.3884 9.63202C27.178 9.17479 26.5841 8.45956 25.5658 8.21327V7.2118C25.5658 6.79969 25.2317 6.46552 24.8195 6.46552C24.4074 6.46552 24.0732 6.7996 24.0732 7.2118V8.21024C22.6003 8.55995 22.0447 9.93426 22.0447 10.9009C22.0447 11.9757 22.7517 13.3088 24.744 13.5287C26.4589 13.718 26.4589 14.6047 26.4589 14.8961C26.4589 15.2057 26.3481 15.6407 26.0371 15.9333C25.7432 16.21 25.2991 16.3325 24.7165 16.297Z" fill="#FC2B3A"/>
</g>
<defs>
<clipPath id="clip0_505_427">
<rect width="50" height="50" fill="white"/>
</clipPath>
</defs>
</svg>
