<svg width="126" height="36" viewBox="0 0 126 36" fill="none" xmlns="http://www.w3.org/2000/svg">
<path d="M52.58 25L49.5 19.56H48.18V25H45.38V11.04H50.62C51.7 11.04 52.62 11.2333 53.38 11.62C54.14 11.9933 54.7067 12.5067 55.08 13.16C55.4667 13.8 55.66 14.52 55.66 15.32C55.66 16.24 55.3933 17.0733 54.86 17.82C54.3267 18.5533 53.5333 19.06 52.48 19.34L55.82 25H52.58ZM48.18 17.46H50.52C51.28 17.46 51.8467 17.28 52.22 16.92C52.5933 16.5467 52.78 16.0333 52.78 15.38C52.78 14.74 52.5933 14.2467 52.22 13.9C51.8467 13.54 51.28 13.36 50.52 13.36H48.18V17.46Z" fill="#3C50E0"/>
<path d="M68.2925 19.22C68.2925 19.62 68.2658 19.98 68.2125 20.3H60.1125C60.1792 21.1 60.4592 21.7267 60.9525 22.18C61.4458 22.6333 62.0525 22.86 62.7725 22.86C63.8125 22.86 64.5525 22.4133 64.9925 21.52H68.0125C67.6925 22.5867 67.0792 23.4667 66.1725 24.16C65.2658 24.84 64.1525 25.18 62.8325 25.18C61.7658 25.18 60.8058 24.9467 59.9525 24.48C59.1125 24 58.4525 23.3267 57.9725 22.46C57.5058 21.5933 57.2725 20.5933 57.2725 19.46C57.2725 18.3133 57.5058 17.3067 57.9725 16.44C58.4392 15.5733 59.0925 14.9067 59.9325 14.44C60.7725 13.9733 61.7392 13.74 62.8325 13.74C63.8858 13.74 64.8258 13.9667 65.6525 14.42C66.4925 14.8733 67.1392 15.52 67.5925 16.36C68.0592 17.1867 68.2925 18.14 68.2925 19.22ZM65.3925 18.42C65.3792 17.7 65.1192 17.1267 64.6125 16.7C64.1058 16.26 63.4858 16.04 62.7525 16.04C62.0592 16.04 61.4725 16.2533 60.9925 16.68C60.5258 17.0933 60.2392 17.6733 60.1325 18.42H65.3925Z" fill="#3C50E0"/>
<path d="M76.2763 13.76C77.5963 13.76 78.6629 14.18 79.4763 15.02C80.2896 15.8467 80.6963 17.0067 80.6963 18.5V25H77.8963V18.88C77.8963 18 77.6763 17.3267 77.2363 16.86C76.7963 16.38 76.1963 16.14 75.4363 16.14C74.6629 16.14 74.0496 16.38 73.5963 16.86C73.1563 17.3267 72.9363 18 72.9363 18.88V25H70.1363V13.92H72.9363V15.3C73.3096 14.82 73.7829 14.4467 74.3563 14.18C74.9429 13.9 75.5829 13.76 76.2763 13.76Z" fill="#3C50E0"/>
<path d="M86.4189 16.22V21.58C86.4189 21.9533 86.5056 22.2267 86.6789 22.4C86.8656 22.56 87.1722 22.64 87.5989 22.64H88.8989V25H87.1389C84.7789 25 83.5989 23.8533 83.5989 21.56V16.22H82.2789V13.92H83.5989V11.18H86.4189V13.92H88.8989V16.22H86.4189Z" fill="#3C50E0"/>
<path d="M92.1328 12.6C91.6395 12.6 91.2262 12.4467 90.8928 12.14C90.5728 11.82 90.4128 11.4267 90.4128 10.96C90.4128 10.4933 90.5728 10.1067 90.8928 9.8C91.2262 9.48 91.6395 9.32 92.1328 9.32C92.6261 9.32 93.0328 9.48 93.3528 9.8C93.6861 10.1067 93.8528 10.4933 93.8528 10.96C93.8528 11.4267 93.6861 11.82 93.3528 12.14C93.0328 12.4467 92.6261 12.6 92.1328 12.6ZM93.5128 13.92V25H90.7128V13.92H93.5128Z" fill="#3C50E0"/>
<path d="M102.219 13.76C103.539 13.76 104.606 14.18 105.419 15.02C106.233 15.8467 106.639 17.0067 106.639 18.5V25H103.839V18.88C103.839 18 103.619 17.3267 103.179 16.86C102.739 16.38 102.139 16.14 101.379 16.14C100.606 16.14 99.9926 16.38 99.5392 16.86C99.0992 17.3267 98.8792 18 98.8792 18.88V25H96.0792V13.92H98.8792V15.3C99.2526 14.82 99.7259 14.4467 100.299 14.18C100.886 13.9 101.526 13.76 102.219 13.76Z" fill="#3C50E0"/>
<path d="M113.442 13.74C114.269 13.74 114.995 13.9067 115.622 14.24C116.249 14.56 116.742 14.98 117.102 15.5V13.92H119.922V25.08C119.922 26.1067 119.715 27.02 119.302 27.82C118.889 28.6333 118.269 29.2733 117.442 29.74C116.615 30.22 115.615 30.46 114.442 30.46C112.869 30.46 111.575 30.0933 110.562 29.36C109.562 28.6267 108.995 27.6267 108.862 26.36H111.642C111.789 26.8667 112.102 27.2667 112.582 27.56C113.075 27.8667 113.669 28.02 114.362 28.02C115.175 28.02 115.835 27.7733 116.342 27.28C116.849 26.8 117.102 26.0667 117.102 25.08V23.36C116.742 23.88 116.242 24.3133 115.602 24.66C114.975 25.0067 114.255 25.18 113.442 25.18C112.509 25.18 111.655 24.94 110.882 24.46C110.109 23.98 109.495 23.3067 109.042 22.44C108.602 21.56 108.382 20.5533 108.382 19.42C108.382 18.3 108.602 17.3067 109.042 16.44C109.495 15.5733 110.102 14.9067 110.862 14.44C111.635 13.9733 112.495 13.74 113.442 13.74ZM117.102 19.46C117.102 18.78 116.969 18.2 116.702 17.72C116.435 17.2267 116.075 16.8533 115.622 16.6C115.169 16.3333 114.682 16.2 114.162 16.2C113.642 16.2 113.162 16.3267 112.722 16.58C112.282 16.8333 111.922 17.2067 111.642 17.7C111.375 18.18 111.242 18.7533 111.242 19.42C111.242 20.0867 111.375 20.6733 111.642 21.18C111.922 21.6733 112.282 22.0533 112.722 22.32C113.175 22.5867 113.655 22.72 114.162 22.72C114.682 22.72 115.169 22.5933 115.622 22.34C116.075 22.0733 116.435 21.7 116.702 21.22C116.969 20.7267 117.102 20.14 117.102 19.46Z" fill="#3C50E0"/>
<path d="M123.697 25.14C123.19 25.14 122.77 24.9867 122.437 24.68C122.117 24.36 121.957 23.9667 121.957 23.5C121.957 23.0333 122.117 22.6467 122.437 22.34C122.77 22.02 123.19 21.86 123.697 21.86C124.19 21.86 124.597 22.02 124.917 22.34C125.237 22.6467 125.397 23.0333 125.397 23.5C125.397 23.9667 125.237 24.36 124.917 24.68C124.597 24.9867 124.19 25.14 123.697 25.14Z" fill="#3C50E0"/>
<g clip-path="url(#clip0_505_445)">
<path d="M18 9.45871L5.1608 20.0433C5.1608 20.0582 5.15705 20.0802 5.14954 20.1102C5.14219 20.1399 5.13828 20.1615 5.13828 20.1768V30.8948C5.13828 31.2818 5.27976 31.6172 5.56264 31.8996C5.84545 32.1822 6.18035 32.3244 6.56741 32.3244H15.1416V23.7497H20.8586V32.3247H29.4327C29.8197 32.3247 30.155 32.1828 30.4375 31.8996C30.7203 31.6175 30.8623 31.2819 30.8623 30.8948V20.1768C30.8623 20.1174 30.8542 20.0725 30.8398 20.0433L18 9.45871Z" fill="#3C50E0"/>
<path opacity="0.8" d="M35.7517 17.6316L30.8618 13.5676V4.45714C30.8618 4.24887 30.7949 4.07759 30.6605 3.94354C30.5272 3.80964 30.3559 3.74269 30.1472 3.74269H25.86C25.6515 3.74269 25.4803 3.80964 25.3462 3.94354C25.2124 4.07759 25.1455 4.24895 25.1455 4.45714V8.81135L19.6972 4.25599C19.2214 3.86892 18.6556 3.67543 18.0005 3.67543C17.3455 3.67543 16.7798 3.86892 16.3035 4.25599L0.248096 17.6316C0.099262 17.7505 0.0176886 17.9105 0.00251581 18.1115C-0.0125788 18.3124 0.0394311 18.4878 0.158702 18.6365L1.5431 20.289C1.66237 20.4229 1.81848 20.5048 2.01205 20.5347C2.19076 20.5497 2.36947 20.4975 2.54818 20.3784L18 7.4939L33.4521 20.3784C33.5714 20.4822 33.7274 20.5341 33.921 20.5341H33.9881C34.1814 20.5047 34.3372 20.4222 34.4571 20.2887L35.8416 18.6365C35.9607 18.4874 36.0128 18.3123 35.9973 18.1112C35.9821 17.9108 35.9002 17.7507 35.7517 17.6316Z" fill="#3C50E0"/>
</g>
<defs>
<clipPath id="clip0_505_445">
<rect width="36.0001" height="36" fill="white"/>
</clipPath>
</defs>
</svg>
